<svg width="74" height="42" viewBox="0 0 74 42" fill="none" xmlns="http://www.w3.org/2000/svg">
<rect width="73.0435" height="27.8478" rx="4" fill="#522B85"/>
<path d="M6.67875 15.032H8.87075C9.03608 15.032 9.16142 14.9733 9.24675 14.856C9.31608 14.7493 9.35075 14.6507 9.35075 14.56C9.35075 14.5333 9.34542 14.4987 9.33475 14.456L8.69475 12.128L9.62275 11.864L10.2708 14.208C10.2974 14.3413 10.3108 14.4587 10.3108 14.56C10.3108 14.9013 10.2068 15.2 9.99875 15.456C9.86008 15.6267 9.69208 15.76 9.49475 15.856C9.29742 15.952 9.08942 16 8.87075 16H6.67875V15.032ZM15.4031 16H14.7071C14.6751 16.512 14.4777 16.9333 14.1151 17.264C13.9177 17.4507 13.7044 17.592 13.4751 17.688C13.2457 17.7893 12.9737 17.856 12.6591 17.888C12.3444 17.9253 11.9364 17.9413 11.4351 17.936V16.976H11.6991C12.1577 16.976 12.5204 16.9493 12.7871 16.896C13.0591 16.8427 13.2884 16.7307 13.4751 16.56C13.5924 16.4533 13.6697 16.2987 13.7071 16.096L13.7151 16H12.9071C12.5551 16 12.2324 15.912 11.9391 15.736C11.6457 15.56 11.4137 15.3227 11.2431 15.024C11.0724 14.7253 10.9871 14.3973 10.9871 14.04C10.9871 13.688 11.0724 13.3653 11.2431 13.072C11.4137 12.7787 11.6457 12.5467 11.9391 12.376C12.2324 12.2053 12.5551 12.12 12.9071 12.12H14.7151V15.032H15.4031V16ZM13.7391 13.088H12.9071C12.6351 13.088 12.4057 13.1787 12.2191 13.36C12.0377 13.5413 11.9471 13.768 11.9471 14.04C11.9471 14.3173 12.0404 14.552 12.2271 14.744C12.4137 14.936 12.6404 15.032 12.9071 15.032H13.7391V13.088ZM17.1664 10.288C17.321 10.288 17.4544 10.344 17.5664 10.456C17.6784 10.5627 17.7344 10.6933 17.7344 10.848C17.7344 11.0027 17.6784 11.136 17.5664 11.248C17.4544 11.36 17.321 11.416 17.1664 11.416C17.0117 11.416 16.8784 11.36 16.7664 11.248C16.6544 11.136 16.5984 11.0027 16.5984 10.848C16.5984 10.6933 16.6544 10.5627 16.7664 10.456C16.8784 10.344 17.0117 10.288 17.1664 10.288ZM18.6464 10.288C18.801 10.288 18.9344 10.344 19.0464 10.456C19.1584 10.5627 19.2144 10.6933 19.2144 10.848C19.2144 11.0027 19.1584 11.136 19.0464 11.248C18.9344 11.36 18.801 11.416 18.6464 11.416C18.4917 11.416 18.3584 11.36 18.2464 11.248C18.1344 11.136 18.0784 11.0027 18.0784 10.848C18.0784 10.6933 18.1344 10.5627 18.2464 10.456C18.3584 10.344 18.4917 10.288 18.6464 10.288ZM19.4624 15.32C19.4624 15.5067 19.3957 15.6667 19.2624 15.8C19.1344 15.9333 18.977 16 18.7904 16H15.1584V15.032H16.0784C15.9717 14.9147 15.889 14.776 15.8304 14.616C15.7717 14.4507 15.7424 14.2773 15.7424 14.096V13.904C15.7424 13.5733 15.8277 13.272 15.9984 13C16.169 12.728 16.3984 12.5147 16.6864 12.36C16.9744 12.2 17.2864 12.12 17.6224 12.12H19.4624V15.32ZM17.6304 13.032C17.3744 13.032 17.153 13.1253 16.9664 13.312C16.785 13.4933 16.6944 13.7147 16.6944 13.976V14.128C16.6997 14.3787 16.793 14.592 16.9744 14.768C17.161 14.944 17.3797 15.032 17.6304 15.032H18.3824C18.4144 15.032 18.441 15.0213 18.4624 15C18.489 14.9733 18.5024 14.9413 18.5024 14.904V13.032H17.6304ZM23.9299 15.84C23.9299 16.432 23.7299 16.9067 23.3299 17.264C23.1325 17.4507 22.9192 17.592 22.6899 17.688C22.4605 17.7893 22.1885 17.856 21.8739 17.888C21.5592 17.9253 21.1512 17.9413 20.6499 17.936V16.976H20.9139C21.3725 16.976 21.7352 16.9493 22.0019 16.896C22.2739 16.8427 22.5032 16.7307 22.6899 16.56C22.8072 16.4533 22.8845 16.2987 22.9219 16.096L22.9299 16H22.1219C21.7699 16 21.4472 15.912 21.1539 15.736C20.8605 15.56 20.6285 15.3227 20.4579 15.024C20.2872 14.7253 20.2019 14.3973 20.2019 14.04C20.2019 13.688 20.2872 13.3653 20.4579 13.072C20.6285 12.7787 20.8605 12.5467 21.1539 12.376C21.4472 12.2053 21.7699 12.12 22.1219 12.12H23.9299V15.84ZM22.9539 13.088H22.1219C21.8499 13.088 21.6205 13.1787 21.4339 13.36C21.2525 13.5413 21.1619 13.768 21.1619 14.04C21.1619 14.3173 21.2552 14.552 21.4419 14.744C21.6285 14.936 21.8552 15.032 22.1219 15.032H22.9539V13.088ZM27.8439 10.304C27.9985 10.304 28.1319 10.36 28.2439 10.472C28.3559 10.5787 28.4119 10.7093 28.4119 10.864C28.4119 11.024 28.3559 11.16 28.2439 11.272C28.1319 11.3787 27.9985 11.432 27.8439 11.432C27.6892 11.432 27.5559 11.3787 27.4439 11.272C27.3319 11.16 27.2759 11.024 27.2759 10.864C27.2759 10.7093 27.3319 10.5787 27.4439 10.472C27.5559 10.36 27.6892 10.304 27.8439 10.304ZM29.3159 10.304C29.4759 10.304 29.6119 10.36 29.7239 10.472C29.8359 10.5787 29.8919 10.7093 29.8919 10.864C29.8919 11.024 29.8359 11.16 29.7239 11.272C29.6119 11.3787 29.4759 11.432 29.3159 11.432C29.1612 11.432 29.0279 11.3787 28.9159 11.272C28.8092 11.16 28.7559 11.024 28.7559 10.864C28.7559 10.7093 28.8119 10.5787 28.9239 10.472C29.0359 10.36 29.1665 10.304 29.3159 10.304ZM30.9719 15.032C31.1052 15.032 31.2199 15.08 31.3159 15.176C31.4119 15.2667 31.4599 15.3787 31.4599 15.512C31.4599 15.6453 31.4119 15.76 31.3159 15.856C31.2252 15.9467 31.1132 15.9947 30.9799 16H30.5479C30.3345 16 30.1319 15.9493 29.9399 15.848C29.7532 15.7467 29.5985 15.608 29.4759 15.432C29.3159 15.608 29.1239 15.7467 28.8999 15.848C28.6759 15.9493 28.4359 16 28.1799 16C27.8439 16 27.5292 15.9173 27.2359 15.752C26.9479 15.5867 26.7159 15.3653 26.5399 15.088C26.3692 14.8053 26.2839 14.4987 26.2839 14.168V13.96C26.2839 13.6027 26.3665 13.2853 26.5319 13.008C26.6972 12.7253 26.9239 12.5067 27.2119 12.352C27.4999 12.1973 27.8225 12.12 28.1799 12.12H30.0999L30.1079 14.592C30.1079 14.7307 30.1452 14.84 30.2199 14.92C30.2945 14.9947 30.4039 15.032 30.5479 15.032H30.9719ZM28.1799 15.032C28.4465 15.032 28.6732 14.9387 28.8599 14.752C29.0465 14.5653 29.1399 14.3413 29.1399 14.08V13.104L28.1799 13.088C27.9239 13.0827 27.7025 13.16 27.5159 13.32C27.3292 13.48 27.2359 13.6933 27.2359 13.96V14.128C27.2359 14.3787 27.3292 14.592 27.5159 14.768C27.7025 14.944 27.9239 15.032 28.1799 15.032ZM38.3755 15.032V16H30.7755V15.032H31.7595V10.416H32.7195V12.832L34.7035 12.224C34.9168 12.16 35.1328 12.128 35.3515 12.128C35.7248 12.128 36.0742 12.216 36.3995 12.392C36.7248 12.568 36.9782 12.8107 37.1595 13.12C37.3515 13.4453 37.4475 13.8053 37.4475 14.2V15.032H38.3755ZM36.3115 15.032C36.3595 15.032 36.3995 15.0133 36.4315 14.976C36.4688 14.9387 36.4875 14.8933 36.4875 14.84V14.2C36.4875 13.976 36.4342 13.776 36.3275 13.6C36.2315 13.4347 36.0982 13.3093 35.9275 13.224C35.7568 13.1333 35.5675 13.088 35.3595 13.088C35.2368 13.088 35.1115 13.104 34.9835 13.136L32.7195 13.824V15.032H36.3115ZM38.201 16C38.0677 16 37.953 15.952 37.857 15.856C37.7557 15.76 37.705 15.6453 37.705 15.512C37.705 15.3787 37.7557 15.2667 37.857 15.176C37.953 15.08 38.0677 15.032 38.201 15.032H41.593C41.5343 14.9947 41.4837 14.944 41.441 14.88C41.4037 14.8107 41.385 14.736 41.385 14.656V14.472C41.385 13.96 41.233 13.5893 40.929 13.36C40.673 13.1627 40.3423 13.064 39.937 13.064C39.617 13.064 39.265 13.128 38.881 13.256L38.529 12.384C38.9717 12.192 39.433 12.096 39.913 12.096C40.537 12.096 41.0677 12.264 41.505 12.6C41.7397 12.7707 41.9343 13.0053 42.089 13.304C42.249 13.6027 42.329 13.9733 42.329 14.416V14.648C42.329 14.7653 42.3583 14.8587 42.417 14.928C42.481 14.9973 42.5663 15.032 42.673 15.032H43.297V16H38.201ZM42.6547 15.176C42.7454 15.08 42.8574 15.032 42.9907 15.032H43.2467C43.3907 15.032 43.5 14.9947 43.5747 14.92C43.6494 14.84 43.6867 14.7307 43.6867 14.592V12.12H45.6067C45.964 12.12 46.2867 12.2053 46.5747 12.376C46.868 12.5413 47.0974 12.7707 47.2627 13.064C47.428 13.3573 47.5107 13.6853 47.5107 14.048V14.192C47.5054 14.5227 47.4147 14.8267 47.2387 15.104C47.0627 15.3813 46.828 15.6 46.5347 15.76C46.2467 15.92 45.9347 16 45.5987 16C45.348 16 45.1107 15.9493 44.8867 15.848C44.6627 15.7467 44.4734 15.608 44.3187 15.432C44.196 15.608 44.0387 15.7467 43.8467 15.848C43.66 15.9493 43.46 16 43.2467 16H42.9827C42.8494 15.9947 42.7374 15.9467 42.6467 15.856C42.5507 15.76 42.5027 15.6453 42.5027 15.512C42.508 15.3787 42.5587 15.2667 42.6547 15.176ZM44.9347 14.792C45.1214 14.952 45.348 15.032 45.6147 15.032C45.8654 15.032 46.0814 14.9467 46.2627 14.776C46.4494 14.6 46.5454 14.3893 46.5507 14.144V14.008C46.5507 13.7413 46.4574 13.52 46.2707 13.344C46.084 13.168 45.8547 13.08 45.5827 13.08H44.6547V14.176C44.66 14.4267 44.7534 14.632 44.9347 14.792Z" fill="white"/>
<path fill-rule="evenodd" clip-rule="evenodd" d="M56.8333 6.33301H57.5C59.3856 6.33301 60.3284 6.33301 60.9142 6.91879C61.5 7.50458 61.5 8.44739 61.5 10.333V15.833H62.5476C63.3497 15.833 64 16.4833 64 17.2854V17.333C64 17.6091 64.2239 17.833 64.5 17.833C64.7761 17.833 65 17.6091 65 17.333V14.1663L64.1838 13.8943C63.7754 13.7581 63.5 13.376 63.5 12.9456V11.333C63.5 10.7807 63.9477 10.333 64.5 10.333H65V10.0813C65 9.95796 64.9998 9.91557 64.9977 9.87683C64.9754 9.48043 64.7969 9.10904 64.5013 8.84403C64.4723 8.81813 64.4394 8.7915 64.3431 8.71444L63.521 8.05679C63.3053 7.88429 63.2704 7.56964 63.4429 7.35401C63.6154 7.13838 63.9301 7.10342 64.1457 7.27593L64.9785 7.94219C65.0601 8.00743 65.1163 8.05244 65.1687 8.09942C65.6615 8.5411 65.9589 9.16009 65.9961 9.82075C66 9.89102 66 9.96308 66 10.0675V17.333C66 18.1615 65.3284 18.833 64.5 18.833C63.6716 18.833 63 18.1615 63 17.333V17.2854C63 17.0355 62.7975 16.833 62.5476 16.833H61.5V19.1663H62.2489C62.5251 19.1663 62.7489 19.3902 62.7489 19.6663C62.7489 19.9425 62.5251 20.1663 62.2489 20.1663H52.1667C51.8905 20.1663 51.6667 19.9425 51.6667 19.6663C51.6667 19.3902 51.8905 19.1663 52.1667 19.1663H52.8333V10.333C52.8333 8.44739 52.8333 7.50458 53.4191 6.91879C54.0049 6.33301 54.9477 6.33301 56.8333 6.33301ZM55.6667 15.833C55.3905 15.833 55.1667 16.0569 55.1667 16.333C55.1667 16.6091 55.3905 16.833 55.6667 16.833H59C59.2761 16.833 59.5 16.6091 59.5 16.333C59.5 16.0569 59.2761 15.833 59 15.833H55.6667ZM58.3333 8.99967H56.3333C55.7048 8.99967 55.3905 8.99967 55.1952 9.19493C55 9.3902 55 9.70447 55 10.333C55 10.9615 55 11.2758 55.1952 11.4711C55.3905 11.6663 55.7048 11.6663 56.3333 11.6663H58.3333C58.9619 11.6663 59.2761 11.6663 59.4714 11.4711C59.6667 11.2758 59.6667 10.9615 59.6667 10.333C59.6667 9.70447 59.6667 9.3902 59.4714 9.19493C59.2761 8.99967 58.9619 8.99967 58.3333 8.99967Z" fill="white"/>
<path d="M60.7321 39C59.9622 40.3333 58.0377 40.3333 57.2679 39L49.4737 25.5C48.7039 24.1667 49.6662 22.5 51.2058 22.5L66.7942 22.5C68.3338 22.5 69.2961 24.1667 68.5263 25.5L60.7321 39Z" fill="#522B85"/>
</svg>
