<svg width="74" height="42" viewBox="0 0 74 42" fill="none" xmlns="http://www.w3.org/2000/svg">
<rect width="73.0435" height="27.8478" rx="4" transform="matrix(-1 0 0 1 73.0435 0)" fill="#522B85"/>
<path d="M29.0724 14.976C28.7898 15.3387 28.4404 15.6187 28.0244 15.816C27.6084 16.0133 27.1498 16.112 26.6484 16.112C26.0404 16.112 25.5178 15.984 25.0804 15.728C24.6431 15.472 24.3098 15.1253 24.0804 14.688C23.8564 14.2507 23.7444 13.76 23.7444 13.216C23.7444 12.6667 23.8591 12.1707 24.0884 11.728C24.3231 11.2853 24.6591 10.936 25.0964 10.68C25.5391 10.424 26.0564 10.296 26.6484 10.296C27.1231 10.296 27.5631 10.4 27.9684 10.608C28.3738 10.816 28.7071 11.104 28.9684 11.472L28.0804 12.08C27.9258 11.84 27.7231 11.6533 27.4724 11.52C27.2271 11.3813 26.9524 11.312 26.6484 11.312C26.2858 11.312 25.9684 11.3947 25.6964 11.56C25.4298 11.7253 25.2218 11.9547 25.0724 12.248C24.9284 12.536 24.8564 12.8587 24.8564 13.216C24.8564 13.5733 24.9258 13.8933 25.0644 14.176C25.2084 14.4587 25.4164 14.6853 25.6884 14.856C25.9604 15.0213 26.2804 15.104 26.6484 15.104C26.9578 15.104 27.2298 15.0613 27.4644 14.976C27.7044 14.8853 27.9124 14.7413 28.0884 14.544V13.744H26.8404V12.856H29.0804L29.0724 14.976ZM32.6076 15.336C32.5062 15.5707 32.3382 15.7547 32.1036 15.888C31.8689 16.0213 31.5809 16.088 31.2396 16.088C30.7756 16.088 30.4156 15.9707 30.1596 15.736C29.9036 15.496 29.7756 15.1813 29.7756 14.792C29.7756 14.376 29.9382 14.064 30.2636 13.856C30.5889 13.648 31.0316 13.544 31.5916 13.544C31.8689 13.544 32.1622 13.568 32.4716 13.616L32.4636 13.4C32.4636 13.176 32.3836 13.008 32.2236 12.896C32.0689 12.784 31.8742 12.728 31.6396 12.728C31.4369 12.728 31.2422 12.7707 31.0556 12.856C30.8689 12.9413 30.7089 13.0587 30.5756 13.208L30.0156 12.624C30.2449 12.384 30.5062 12.2053 30.7996 12.088C31.0929 11.9653 31.4022 11.904 31.7276 11.904C32.0636 11.904 32.3649 11.976 32.6316 12.12C32.8982 12.2587 33.1062 12.4533 33.2556 12.704C33.4102 12.9547 33.4876 13.2373 33.4876 13.552V16H32.6076V15.336ZM32.4796 14.192C32.2076 14.1493 31.9729 14.128 31.7756 14.128C31.4609 14.128 31.2182 14.1787 31.0476 14.28C30.8822 14.376 30.7996 14.5227 30.7996 14.72C30.7996 15.1253 31.0342 15.328 31.5036 15.328C31.8076 15.328 32.0449 15.248 32.2156 15.088C32.3916 14.9227 32.4796 14.6933 32.4796 14.4V14.192ZM35.9363 16.112C35.547 16.112 35.187 16.0507 34.8563 15.928C34.531 15.8 34.2723 15.6267 34.0803 15.408L34.5443 14.704C34.7096 14.8693 34.9176 15.0027 35.1683 15.104C35.419 15.2053 35.6776 15.256 35.9443 15.256C36.163 15.256 36.331 15.2187 36.4483 15.144C36.5656 15.0693 36.6243 14.968 36.6243 14.84C36.6243 14.7387 36.5816 14.656 36.4963 14.592C36.4163 14.5227 36.283 14.4667 36.0963 14.424L35.3603 14.248C34.971 14.152 34.6856 14.0107 34.5043 13.824C34.323 13.6373 34.2323 13.4027 34.2323 13.12C34.2323 12.72 34.3843 12.4027 34.6883 12.168C34.9923 11.9333 35.4056 11.816 35.9283 11.816C36.275 11.816 36.5976 11.872 36.8963 11.984C37.195 12.0907 37.4323 12.24 37.6083 12.432L37.1363 13.136C36.763 12.832 36.3576 12.68 35.9203 12.68C35.7123 12.68 35.5523 12.7147 35.4403 12.784C35.3283 12.8533 35.2723 12.952 35.2723 13.08C35.2723 13.1707 35.3096 13.248 35.3843 13.312C35.4643 13.3707 35.5976 13.424 35.7843 13.472L36.5203 13.648C36.9256 13.744 37.219 13.8853 37.4003 14.072C37.5816 14.2587 37.6723 14.496 37.6723 14.784C37.6723 15.1947 37.5176 15.52 37.2083 15.76C36.9043 15.9947 36.4803 16.112 35.9363 16.112ZM42.037 16.112C41.4877 16.112 41.013 16.0027 40.613 15.784C40.2183 15.5653 39.925 15.2587 39.733 14.864L40.469 14.272C40.821 14.848 41.357 15.136 42.077 15.136C42.4183 15.136 42.6877 15.072 42.885 14.944C43.0823 14.816 43.181 14.6427 43.181 14.424C43.181 14.2533 43.1143 14.1147 42.981 14.008C42.853 13.896 42.6317 13.8027 42.317 13.728L41.461 13.52C40.405 13.2693 39.877 12.7413 39.877 11.936C39.877 11.6107 39.9597 11.3253 40.125 11.08C40.2957 10.8293 40.5383 10.6347 40.853 10.496C41.173 10.3573 41.549 10.288 41.981 10.288C42.4717 10.288 42.9063 10.3867 43.285 10.584C43.669 10.7813 43.957 11.0453 44.149 11.376L43.405 11.976C43.2343 11.7467 43.029 11.5707 42.789 11.448C42.549 11.32 42.277 11.256 41.973 11.256C41.6477 11.256 41.3997 11.3147 41.229 11.432C41.0583 11.544 40.973 11.704 40.973 11.912C40.973 12.072 41.0397 12.2027 41.173 12.304C41.3063 12.4053 41.5383 12.496 41.869 12.576L42.765 12.792C43.773 13.032 44.277 13.5573 44.277 14.368C44.277 14.7147 44.1837 15.0187 43.997 15.28C43.8157 15.5413 43.5543 15.7467 43.213 15.896C42.877 16.04 42.485 16.112 42.037 16.112ZM46.3041 16C46.0427 16 45.8187 15.9093 45.6321 15.728C45.4507 15.5413 45.3601 15.3147 45.3601 15.048V12.92H44.6001V12H45.3601V10.72H46.4081V12H47.5281V12.92H46.4081V14.96C46.4081 15.0293 46.4427 15.064 46.5121 15.064H47.5361V16H46.3041ZM50.8751 15.336C50.7737 15.5707 50.6057 15.7547 50.3711 15.888C50.1364 16.0213 49.8484 16.088 49.5071 16.088C49.0431 16.088 48.6831 15.9707 48.4271 15.736C48.1711 15.496 48.0431 15.1813 48.0431 14.792C48.0431 14.376 48.2057 14.064 48.5311 13.856C48.8564 13.648 49.2991 13.544 49.8591 13.544C50.1364 13.544 50.4297 13.568 50.7391 13.616L50.7311 13.4C50.7311 13.176 50.6511 13.008 50.4911 12.896C50.3364 12.784 50.1417 12.728 49.9071 12.728C49.7044 12.728 49.5097 12.7707 49.3231 12.856C49.1364 12.9413 48.9764 13.0587 48.8431 13.208L48.2831 12.624C48.5124 12.384 48.7737 12.2053 49.0671 12.088C49.3604 11.9653 49.6697 11.904 49.9951 11.904C50.3311 11.904 50.6324 11.976 50.8991 12.12C51.1657 12.2587 51.3737 12.4533 51.5231 12.704C51.6777 12.9547 51.7551 13.2373 51.7551 13.552V16H50.8751V15.336ZM50.7471 14.192C50.4751 14.1493 50.2404 14.128 50.0431 14.128C49.7284 14.128 49.4857 14.1787 49.3151 14.28C49.1497 14.376 49.0671 14.5227 49.0671 14.72C49.0671 15.1253 49.3017 15.328 49.7711 15.328C50.0751 15.328 50.3124 15.248 50.4831 15.088C50.6591 14.9227 50.7471 14.6933 50.7471 14.4V14.192ZM53.8392 16C53.5778 16 53.3538 15.9093 53.1672 15.728C52.9858 15.5413 52.8952 15.3147 52.8952 15.048V12.92H52.1352V12H52.8952V10.72H53.9432V12H55.0632V12.92H53.9432V14.96C53.9432 15.0293 53.9778 15.064 54.0472 15.064H55.0712V16H53.8392ZM56.354 11.272C56.178 11.272 56.026 11.2107 55.898 11.088C55.7753 10.9653 55.714 10.816 55.714 10.64C55.714 10.4693 55.7753 10.3227 55.898 10.2C56.026 10.072 56.178 10.008 56.354 10.008C56.5247 10.008 56.6713 10.072 56.794 10.2C56.9167 10.3227 56.978 10.4693 56.978 10.64C56.978 10.816 56.9167 10.9653 56.794 11.088C56.6713 11.2107 56.5247 11.272 56.354 11.272ZM56.874 12V16H55.834V12H56.874ZM59.8184 16.096C59.3918 16.096 59.0131 16.008 58.6824 15.832C58.3571 15.6507 58.1038 15.4 57.9224 15.08C57.7411 14.7547 57.6504 14.3813 57.6504 13.96C57.6504 13.56 57.7411 13.2053 57.9224 12.896C58.1091 12.5813 58.3678 12.3387 58.6984 12.168C59.0344 11.992 59.4158 11.904 59.8424 11.904C60.2638 11.904 60.6371 11.992 60.9624 12.168C61.2878 12.3387 61.5384 12.5813 61.7144 12.896C61.8958 13.2053 61.9864 13.56 61.9864 13.96C61.9864 14.376 61.8958 14.7467 61.7144 15.072C61.5331 15.392 61.2771 15.6427 60.9464 15.824C60.6158 16.0053 60.2398 16.096 59.8184 16.096ZM59.8184 15.2C60.1491 15.2 60.4184 15.088 60.6264 14.864C60.8344 14.64 60.9384 14.3467 60.9384 13.984C60.9384 13.6267 60.8371 13.336 60.6344 13.112C60.4318 12.888 60.1678 12.776 59.8424 12.776C59.5064 12.776 59.2318 12.888 59.0184 13.112C58.8104 13.336 58.7064 13.6267 58.7064 13.984C58.7064 14.3467 58.8078 14.64 59.0104 14.864C59.2184 15.088 59.4878 15.2 59.8184 15.2ZM65.0954 11.904C65.3567 11.904 65.5967 11.968 65.8154 12.096C66.0394 12.224 66.2154 12.3973 66.3434 12.616C66.4714 12.8293 66.5354 13.0667 66.5354 13.328V16H65.4874V13.688C65.4874 13.4533 65.4047 13.2533 65.2394 13.088C65.0794 12.9227 64.882 12.84 64.6474 12.84C64.4127 12.84 64.2127 12.9227 64.0474 13.088C63.882 13.2533 63.7994 13.4533 63.7994 13.688L63.8074 16H62.7674V12H63.7834V12.632C63.9007 12.408 64.0767 12.232 64.3114 12.104C64.5514 11.9707 64.8127 11.904 65.0954 11.904Z" fill="white"/>
<path fill-rule="evenodd" clip-rule="evenodd" d="M12.2102 6.33301H12.8768C14.7624 6.33301 15.7052 6.33301 16.291 6.91879C16.8768 7.50458 16.8768 8.44739 16.8768 10.333V15.833H17.9244C18.7266 15.833 19.3768 16.4833 19.3768 17.2854V17.333C19.3768 17.6091 19.6007 17.833 19.8768 17.833C20.153 17.833 20.3768 17.6091 20.3768 17.333V14.1663L19.5606 13.8943C19.1522 13.7581 18.8768 13.376 18.8768 12.9456V11.333C18.8768 10.7807 19.3246 10.333 19.8768 10.333H20.3768V10.0813C20.3768 9.95796 20.3766 9.91557 20.3745 9.87683C20.3522 9.48043 20.1737 9.10904 19.8781 8.84403C19.8492 8.81813 19.8162 8.7915 19.7199 8.71444L18.8978 8.05679C18.6822 7.88429 18.6472 7.56964 18.8197 7.35401C18.9922 7.13838 19.3069 7.10342 19.5225 7.27593L20.3554 7.94219C20.4369 8.00743 20.4932 8.05244 20.5456 8.09942C21.0383 8.5411 21.3358 9.16009 21.3729 9.82075C21.3768 9.89102 21.3768 9.96308 21.3768 10.0675V17.333C21.3768 18.1615 20.7052 18.833 19.8768 18.833C19.0484 18.833 18.3768 18.1615 18.3768 17.333V17.2854C18.3768 17.0355 18.1743 16.833 17.9244 16.833H16.8768V19.1663H17.6258C17.9019 19.1663 18.1258 19.3902 18.1258 19.6663C18.1258 19.9425 17.9019 20.1663 17.6258 20.1663H7.54349C7.26735 20.1663 7.04349 19.9425 7.04349 19.6663C7.04349 19.3902 7.26735 19.1663 7.54349 19.1663H8.21015V10.333C8.21015 8.44739 8.21015 7.50458 8.79594 6.91879C9.38173 6.33301 10.3245 6.33301 12.2102 6.33301ZM11.0435 15.833C10.7673 15.833 10.5435 16.0569 10.5435 16.333C10.5435 16.6091 10.7673 16.833 11.0435 16.833H14.3768C14.653 16.833 14.8768 16.6091 14.8768 16.333C14.8768 16.0569 14.653 15.833 14.3768 15.833H11.0435ZM13.7102 8.99967H11.7102C11.0816 8.99967 10.7673 8.99967 10.5721 9.19493C10.3768 9.3902 10.3768 9.70447 10.3768 10.333C10.3768 10.9615 10.3768 11.2758 10.5721 11.4711C10.7673 11.6663 11.0816 11.6663 11.7102 11.6663H13.7102C14.3387 11.6663 14.653 11.6663 14.8482 11.4711C15.0435 11.2758 15.0435 10.9615 15.0435 10.333C15.0435 9.70447 15.0435 9.3902 14.8482 9.19493C14.653 8.99967 14.3387 8.99967 13.7102 8.99967Z" fill="white"/>
<path d="M12.3114 39C13.0812 40.3333 15.0057 40.3333 15.7755 39L23.5698 25.5C24.3396 24.1667 23.3773 22.5 21.8377 22.5L6.24926 22.5C4.70966 22.5 3.74741 24.1667 4.51721 25.5L12.3114 39Z" fill="#522B85"/>
</svg>
