<svg width="95" height="94" viewBox="0 0 95 94" fill="none" xmlns="http://www.w3.org/2000/svg">
<path d="M36.8919 0H8.78378C3.93263 0 0 3.93263 0 8.78378V36.8919C0 41.743 3.93263 45.6757 8.78378 45.6757H36.8919C41.743 45.6757 45.6757 41.743 45.6757 36.8919V8.78378C45.6757 3.93263 41.743 0 36.8919 0Z" fill="#522B85"/>
<path d="M86.081 48.3105H57.9729C53.1218 48.3105 49.1891 52.2432 49.1891 57.0943V85.2024C49.1891 90.0536 53.1218 93.9862 57.9729 93.9862H86.081C90.9322 93.9862 94.8648 90.0536 94.8648 85.2024V57.0943C94.8648 52.2432 90.9322 48.3105 86.081 48.3105Z" fill="#522B85"/>
<path d="M31.1136 33.9053L29.0346 29.1803H18.9906L16.9116 33.9053H14.1306L22.6896 15.0053H25.3626L33.9486 33.9053H31.1136ZM19.9356 27.0203H28.0896L24.0126 17.7593L19.9356 27.0203Z" fill="white"/>
<path d="M69.96 73C69.16 73 68.47 73.28 67.89 73.84C67.33 74.42 67.05 75.11 67.05 75.91C67.05 76.71 67.33 77.39 67.89 77.95C68.47 78.51 69.16 78.79 69.96 78.79H76.89V81.31H69.96C68.96 81.31 68.04 81.07 67.2 80.59C66.38 80.11 65.72 79.45 65.22 78.61C64.74 77.79 64.5 76.89 64.5 75.91C64.5 74.79 64.82 73.79 65.46 72.91C66.1 72.01 66.91 71.43 67.89 71.17L68.34 71.11C66.8 69.97 66.03 68.5 66.03 66.7V65.35C66.03 64.17 66.32 63.09 66.9 62.11C67.5 61.11 68.29 60.33 69.27 59.77C70.27 59.19 71.35 58.9 72.51 58.9C74.13 58.9 75.5 59.36 76.62 60.28C77.74 61.18 78.46 62.39 78.78 63.91L76.89 65.05C76.73 64.03 76.24 63.17 75.42 62.47C74.6 61.77 73.63 61.42 72.51 61.42C71.81 61.42 71.16 61.6 70.56 61.96C69.96 62.3 69.47 62.77 69.09 63.37C68.73 63.97 68.55 64.62 68.55 65.32V66.67C68.55 67.75 68.93 68.65 69.69 69.37C70.47 70.07 71.41 70.42 72.51 70.42H79.26V73H69.96Z" fill="white"/>
<path d="M78.8282 34.9525V24.707C78.8283 23.0251 78.4971 21.3596 77.8535 19.8056C77.2099 18.2517 76.2665 16.8397 75.0772 15.6504C73.8879 14.4611 72.4759 13.5177 70.922 12.8741C69.368 12.2305 67.7025 11.8993 66.0206 11.8994L64.7399 11.8994" stroke="#DBDBDB" stroke-width="4" stroke-linecap="round" stroke-linejoin="round"/>
<path d="M16.0366 61.3903V71.6357C16.0364 73.3177 16.3676 74.9832 17.0112 76.5371C17.6549 78.0911 18.5983 79.503 19.7876 80.6923C20.9769 81.8817 22.3888 82.8251 23.9428 83.4687C25.4967 84.1123 27.1622 84.4435 28.8442 84.4434H30.1249" stroke="#DBDBDB" stroke-width="4" stroke-linecap="round" stroke-linejoin="round"/>
</svg>
